<svg xmlns="http://www.w3.org/2000/svg" width="900" height="814" viewBox="0 0 900 814" font-family="-apple-system,Segoe UI,Helvetica,Arial,sans-serif">
<rect width="900" height="814" fill="#ffffff"/>
<text x="450.0" y="26" text-anchor="middle" font-size="18" font-weight="700">图③ 谁在传播：头部账号集中度（top1 作者播放占比）</text>
<text x="450.0" y="44" text-anchor="middle" font-size="11" fill="#666">红=单一博主中介（一个号扛起大半触达）；蓝=去中心化偶发爆红。仅统计中国信号过滤后触达池</text>
<line x1="200" y1="70" x2="200" y2="774" stroke="#eee"/>
<text x="200" y="64" text-anchor="middle" font-size="10" fill="#999">0%</text>
<line x1="337.5" y1="70" x2="337.5" y2="774" stroke="#eee"/>
<text x="337.5" y="64" text-anchor="middle" font-size="10" fill="#999">25%</text>
<line x1="475.0" y1="70" x2="475.0" y2="774" stroke="#eee"/>
<text x="475.0" y="64" text-anchor="middle" font-size="10" fill="#999">50%</text>
<line x1="612.5" y1="70" x2="612.5" y2="774" stroke="#eee"/>
<text x="612.5" y="64" text-anchor="middle" font-size="10" fill="#999">75%</text>
<line x1="750.0" y1="70" x2="750.0" y2="774" stroke="#eee"/>
<text x="750.0" y="64" text-anchor="middle" font-size="10" fill="#999">100%</text>
<text x="192" y="82" text-anchor="end" font-size="10" fill="#333">赫哲族伊玛堪</text>
<rect x="200" y="73" width="527.3" height="10" fill="#c0392b" opacity="0.85"/>
<text x="733.3" y="82" font-size="9" fill="#555">96% (5视频/5号)</text>
<text x="192" y="98" text-anchor="end" font-size="10" fill="#333">新疆维吾尔木卡姆艺术</text>
<rect x="200" y="89" width="527.2" height="10" fill="#c0392b" opacity="0.85"/>
<text x="733.2" y="98" font-size="9" fill="#555">96% (24视频/13号)</text>
<text x="192" y="114" text-anchor="end" font-size="10" fill="#333">黎族传统纺染织绣技艺</text>
<rect x="200" y="105" width="454.2" height="10" fill="#c0392b" opacity="0.85"/>
<text x="660.2" y="114" font-size="9" fill="#555">83% (61视频/44号)</text>
<text x="192" y="130" text-anchor="end" font-size="10" fill="#333">中国蚕桑丝织技艺</text>
<rect x="200" y="121" width="408.9" height="10" fill="#c0392b" opacity="0.85"/>
<text x="614.9" y="130" font-size="9" fill="#555">74% (70视频/60号)</text>
<text x="192" y="146" text-anchor="end" font-size="10" fill="#333">福建木偶戏</text>
<rect x="200" y="137" width="403.2" height="10" fill="#c0392b" opacity="0.85"/>
<text x="609.2" y="146" font-size="9" fill="#555">73% (46视频/30号)</text>
<text x="192" y="162" text-anchor="end" font-size="10" fill="#333">粤剧</text>
<rect x="200" y="153" width="373.8" height="10" fill="#c0392b" opacity="0.85"/>
<text x="579.8" y="162" font-size="9" fill="#555">68% (114视频/70号)</text>
<text x="192" y="178" text-anchor="end" font-size="10" fill="#333">玛纳斯</text>
<rect x="200" y="169" width="361.5" height="10" fill="#c0392b" opacity="0.85"/>
<text x="567.5" y="178" font-size="9" fill="#555">66% (10视频/10号)</text>
<text x="192" y="194" text-anchor="end" font-size="10" fill="#333">西安鼓乐</text>
<rect x="200" y="185" width="326.6" height="10" fill="#c0392b" opacity="0.85"/>
<text x="532.6" y="194" font-size="9" fill="#555">59% (49视频/31号)</text>
<text x="192" y="210" text-anchor="end" font-size="10" fill="#333">羌年</text>
<rect x="200" y="201" width="310.0" height="10" fill="#c0392b" opacity="0.85"/>
<text x="516.0" y="210" font-size="9" fill="#555">56% (72视频/58号)</text>
<text x="192" y="226" text-anchor="end" font-size="10" fill="#333">龙泉青瓷传统烧制技艺</text>
<rect x="200" y="217" width="303.5" height="10" fill="#c0392b" opacity="0.85"/>
<text x="509.5" y="226" font-size="9" fill="#555">55% (115视频/77号)</text>
<text x="192" y="242" text-anchor="end" font-size="10" fill="#333">蒙古族长调民歌</text>
<rect x="200" y="233" width="291.9" height="10" fill="#c0392b" opacity="0.85"/>
<text x="497.9" y="242" font-size="9" fill="#555">53% (8视频/7号)</text>
<text x="192" y="258" text-anchor="end" font-size="10" fill="#333">中国水密隔舱福船制造技艺</text>
<rect x="200" y="249" width="290.1" height="10" fill="#c0392b" opacity="0.85"/>
<text x="496.1" y="258" font-size="9" fill="#555">53% (15视频/8号)</text>
<text x="192" y="274" text-anchor="end" font-size="10" fill="#333">端午节</text>
<rect x="200" y="265" width="267.6" height="10" fill="#d88923" opacity="0.85"/>
<text x="473.6" y="274" font-size="9" fill="#555">49% (304视频/261号)</text>
<text x="192" y="290" text-anchor="end" font-size="10" fill="#333">中国雕版印刷技艺</text>
<rect x="200" y="281" width="258.6" height="10" fill="#d88923" opacity="0.85"/>
<text x="464.6" y="290" font-size="9" fill="#555">47% (10视频/10号)</text>
<text x="192" y="306" text-anchor="end" font-size="10" fill="#333">宣纸传统制作技艺</text>
<rect x="200" y="297" width="256.0" height="10" fill="#d88923" opacity="0.85"/>
<text x="462.0" y="306" font-size="9" fill="#555">47% (73视频/52号)</text>
<text x="192" y="322" text-anchor="end" font-size="10" fill="#333">中国篆刻</text>
<rect x="200" y="313" width="252.9" height="10" fill="#d88923" opacity="0.85"/>
<text x="458.9" y="322" font-size="9" fill="#555">46% (243视频/87号)</text>
<text x="192" y="338" text-anchor="end" font-size="10" fill="#333">中国剪纸</text>
<rect x="200" y="329" width="214.2" height="10" fill="#d88923" opacity="0.85"/>
<text x="420.2" y="338" font-size="9" fill="#555">39% (110视频/61号)</text>
<text x="192" y="354" text-anchor="end" font-size="10" fill="#333">南京云锦织造技艺</text>
<rect x="200" y="345" width="212.1" height="10" fill="#d88923" opacity="0.85"/>
<text x="418.1" y="354" font-size="9" fill="#555">39% (40视频/31号)</text>
<text x="192" y="370" text-anchor="end" font-size="10" fill="#333">侗族大歌</text>
<rect x="200" y="361" width="211.4" height="10" fill="#d88923" opacity="0.85"/>
<text x="417.4" y="370" font-size="9" fill="#555">38% (58视频/45号)</text>
<text x="192" y="386" text-anchor="end" font-size="10" fill="#333">南音</text>
<rect x="200" y="377" width="211.0" height="10" fill="#d88923" opacity="0.85"/>
<text x="417.0" y="386" font-size="9" fill="#555">38% (79视频/42号)</text>
<text x="192" y="402" text-anchor="end" font-size="10" fill="#333">中国木拱桥传统营造技艺</text>
<rect x="200" y="393" width="205.8" height="10" fill="#d88923" opacity="0.85"/>
<text x="411.8" y="402" font-size="9" fill="#555">37% (57视频/51号)</text>
<text x="192" y="418" text-anchor="end" font-size="10" fill="#333">中国皮影戏</text>
<rect x="200" y="409" width="203.2" height="10" fill="#d88923" opacity="0.85"/>
<text x="409.2" y="418" font-size="9" fill="#555">37% (111视频/95号)</text>
<text x="192" y="434" text-anchor="end" font-size="10" fill="#333">中国木活字印刷术</text>
<rect x="200" y="425" width="196.6" height="10" fill="#d88923" opacity="0.85"/>
<text x="402.6" y="434" font-size="9" fill="#555">36% (38视频/35号)</text>
<text x="192" y="450" text-anchor="end" font-size="10" fill="#333">藏医药浴法</text>
<rect x="200" y="441" width="193.7" height="10" fill="#d88923" opacity="0.85"/>
<text x="399.7" y="450" font-size="9" fill="#555">35% (95视频/49号)</text>
<text x="192" y="466" text-anchor="end" font-size="10" fill="#333">送王船</text>
<rect x="200" y="457" width="171.5" height="10" fill="#d88923" opacity="0.85"/>
<text x="377.5" y="466" font-size="9" fill="#555">31% (34视频/31号)</text>
<text x="192" y="482" text-anchor="end" font-size="10" fill="#333">格萨(斯)尔史诗传统</text>
<rect x="200" y="473" width="164.4" height="10" fill="#d88923" opacity="0.85"/>
<text x="370.4" y="482" font-size="9" fill="#555">30% (19视频/18号)</text>
<text x="192" y="498" text-anchor="end" font-size="10" fill="#333">太极拳</text>
<rect x="200" y="489" width="159.4" height="10" fill="#d88923" opacity="0.85"/>
<text x="365.4" y="498" font-size="9" fill="#555">29% (219视频/107号)</text>
<text x="192" y="514" text-anchor="end" font-size="10" fill="#333">中国珠算</text>
<rect x="200" y="505" width="152.2" height="10" fill="#d88923" opacity="0.85"/>
<text x="358.2" y="514" font-size="9" fill="#555">28% (46视频/44号)</text>
<text x="192" y="530" text-anchor="end" font-size="10" fill="#333">妈祖信俗</text>
<rect x="200" y="521" width="151.7" height="10" fill="#d88923" opacity="0.85"/>
<text x="357.7" y="530" font-size="9" fill="#555">28% (136视频/105号)</text>
<text x="192" y="546" text-anchor="end" font-size="10" fill="#333">古琴艺术</text>
<rect x="200" y="537" width="136.0" height="10" fill="#3b82f6" opacity="0.85"/>
<text x="342.0" y="546" font-size="9" fill="#555">25% (224视频/100号)</text>
<text x="192" y="562" text-anchor="end" font-size="10" fill="#333">京剧</text>
<rect x="200" y="553" width="126.8" height="10" fill="#3b82f6" opacity="0.85"/>
<text x="332.8" y="562" font-size="9" fill="#555">23% (299视频/125号)</text>
<text x="192" y="578" text-anchor="end" font-size="10" fill="#333">昆曲</text>
<rect x="200" y="569" width="124.2" height="10" fill="#3b82f6" opacity="0.85"/>
<text x="330.2" y="578" font-size="9" fill="#555">23% (197视频/92号)</text>
<text x="192" y="594" text-anchor="end" font-size="10" fill="#333">中国书法</text>
<rect x="200" y="585" width="115.5" height="10" fill="#3b82f6" opacity="0.85"/>
<text x="321.5" y="594" font-size="9" fill="#555">21% (214视频/127号)</text>
<text x="192" y="610" text-anchor="end" font-size="10" fill="#333">中国传统制茶技艺及其相关习俗</text>
<rect x="200" y="601" width="103.3" height="10" fill="#3b82f6" opacity="0.85"/>
<text x="309.3" y="610" font-size="9" fill="#555">19% (416视频/234号)</text>
<text x="192" y="626" text-anchor="end" font-size="10" fill="#333">中国传统木结构建筑营造技艺</text>
<rect x="200" y="617" width="102.6" height="10" fill="#3b82f6" opacity="0.85"/>
<text x="308.6" y="626" font-size="9" fill="#555">19% (158视频/111号)</text>
<text x="192" y="642" text-anchor="end" font-size="10" fill="#333">热贡艺术</text>
<rect x="200" y="633" width="101.7" height="10" fill="#3b82f6" opacity="0.85"/>
<text x="307.7" y="642" font-size="9" fill="#555">18% (164视频/106号)</text>
<text x="192" y="658" text-anchor="end" font-size="10" fill="#333">花儿</text>
<rect x="200" y="649" width="96.1" height="10" fill="#3b82f6" opacity="0.85"/>
<text x="302.1" y="658" font-size="9" fill="#555">17% (34视频/33号)</text>
<text x="192" y="674" text-anchor="end" font-size="10" fill="#333">麦西热甫</text>
<rect x="200" y="665" width="87.3" height="10" fill="#3b82f6" opacity="0.85"/>
<text x="293.3" y="674" font-size="9" fill="#555">16% (41视频/35号)</text>
<text x="192" y="690" text-anchor="end" font-size="10" fill="#333">藏戏</text>
<rect x="200" y="681" width="78.7" height="10" fill="#3b82f6" opacity="0.85"/>
<text x="284.7" y="690" font-size="9" fill="#555">14% (87视频/49号)</text>
<text x="192" y="706" text-anchor="end" font-size="10" fill="#333">蒙古族呼麦</text>
<rect x="200" y="697" width="75.1" height="10" fill="#3b82f6" opacity="0.85"/>
<text x="281.1" y="706" font-size="9" fill="#555">14% (68视频/57号)</text>
<text x="192" y="722" text-anchor="end" font-size="10" fill="#333">二十四节气</text>
<rect x="200" y="713" width="74.2" height="10" fill="#3b82f6" opacity="0.85"/>
<text x="280.2" y="722" font-size="9" fill="#555">14% (167视频/138号)</text>
<text x="192" y="738" text-anchor="end" font-size="10" fill="#333">中医针灸</text>
<rect x="200" y="729" width="69.5" height="10" fill="#3b82f6" opacity="0.85"/>
<text x="275.5" y="738" font-size="9" fill="#555">13% (163视频/136号)</text>
<text x="192" y="754" text-anchor="end" font-size="10" fill="#333">中国朝鲜族农乐舞</text>
<rect x="200" y="745" width="56.9" height="10" fill="#3b82f6" opacity="0.85"/>
<text x="262.9" y="754" font-size="9" fill="#555">10% (33视频/28号)</text>
<text x="192" y="770" text-anchor="end" font-size="10" fill="#333">春节</text>
<rect x="200" y="761" width="33.9" height="10" fill="#3b82f6" opacity="0.85"/>
<text x="239.9" y="770" font-size="9" fill="#555">6% (851视频/785号)</text>
</svg>