<svg xmlns="http://www.w3.org/2000/svg" width="980" height="770" viewBox="0 0 980 770" font-family="-apple-system,Segoe UI,Helvetica,Arial,sans-serif">
<rect width="980" height="770" fill="#ffffff"/>
<text x="490.0" y="26" text-anchor="middle" font-size="18" font-weight="700">图② 触达稀释：机器 likely → 中国信号过滤后</text>
<text x="490.0" y="44" text-anchor="middle" font-size="11" fill="#666">横条越长 = 撞词/无中国信号占比越高 = 该非遗“身份被稀释”越严重（按缩水比例降序）</text>
<line x1="263.94798239221564" y1="70" x2="263.94798239221564" y2="730" stroke="#eee"/>
<text x="263.94798239221564" y="64" text-anchor="middle" font-size="10" fill="#999">100K</text>
<line x1="403.35493877897693" y1="70" x2="403.35493877897693" y2="730" stroke="#eee"/>
<text x="403.35493877897693" y="64" text-anchor="middle" font-size="10" fill="#999">1.0M</text>
<line x1="542.7618951657382" y1="70" x2="542.7618951657382" y2="730" stroke="#eee"/>
<text x="542.7618951657382" y="64" text-anchor="middle" font-size="10" fill="#999">10.0M</text>
<line x1="682.1688515524995" y1="70" x2="682.1688515524995" y2="730" stroke="#eee"/>
<text x="682.1688515524995" y="64" text-anchor="middle" font-size="10" fill="#999">100.0M</text>
<line x1="821.5758079392609" y1="70" x2="821.5758079392609" y2="730" stroke="#eee"/>
<text x="821.5758079392609" y="64" text-anchor="middle" font-size="10" fill="#999">1.00B</text>
<text x="192" y="80.5" text-anchor="end" font-size="10" fill="#333">中国水密隔舱福船制造技艺</text>
<line x1="266.0" y1="77.5" x2="719.1" y2="77.5" stroke="#c0392b" stroke-width="2.2" opacity="0.6"/>
<circle cx="266.0" cy="77.5" r="3.2" fill="#16557a"/>
<circle cx="719.1" cy="77.5" r="3.2" fill="#c0392b"/>
<text x="868" y="80.5" font-size="9" fill="#c0392b">-100%</text>
<text x="192" y="95.5" text-anchor="end" font-size="10" fill="#333">蒙古族长调民歌</text>
<line x1="341.3" y1="92.5" x2="706.5" y2="92.5" stroke="#c0392b" stroke-width="2.2" opacity="0.6"/>
<circle cx="341.3" cy="92.5" r="3.2" fill="#16557a"/>
<circle cx="706.5" cy="92.5" r="3.2" fill="#c0392b"/>
<text x="868" y="95.5" font-size="9" fill="#c0392b">-100%</text>
<text x="192" y="110.5" text-anchor="end" font-size="10" fill="#333">南京云锦织造技艺</text>
<line x1="378.2" y1="107.5" x2="683.2" y2="107.5" stroke="#c0392b" stroke-width="2.2" opacity="0.6"/>
<circle cx="378.2" cy="107.5" r="3.2" fill="#16557a"/>
<circle cx="683.2" cy="107.5" r="3.2" fill="#c0392b"/>
<text x="868" y="110.5" font-size="9" fill="#c0392b">-99%</text>
<text x="192" y="125.5" text-anchor="end" font-size="10" fill="#333">赫哲族伊玛堪</text>
<line x1="264.8" y1="122.5" x2="531.0" y2="122.5" stroke="#c0392b" stroke-width="2.2" opacity="0.6"/>
<circle cx="264.8" cy="122.5" r="3.2" fill="#16557a"/>
<circle cx="531.0" cy="122.5" r="3.2" fill="#c0392b"/>
<text x="868" y="125.5" font-size="9" fill="#c0392b">-99%</text>
<text x="192" y="140.5" text-anchor="end" font-size="10" fill="#333">玛纳斯</text>
<line x1="467.6" y1="137.5" x2="683.0" y2="137.5" stroke="#c0392b" stroke-width="2.2" opacity="0.6"/>
<circle cx="467.6" cy="137.5" r="3.2" fill="#16557a"/>
<circle cx="683.0" cy="137.5" r="3.2" fill="#c0392b"/>
<text x="868" y="140.5" font-size="9" fill="#c0392b">-97%</text>
<text x="192" y="155.5" text-anchor="end" font-size="10" fill="#333">格萨(斯)尔史诗传统</text>
<line x1="232.2" y1="152.5" x2="438.5" y2="152.5" stroke="#c0392b" stroke-width="2.2" opacity="0.6"/>
<circle cx="232.2" cy="152.5" r="3.2" fill="#16557a"/>
<circle cx="438.5" cy="152.5" r="3.2" fill="#c0392b"/>
<text x="868" y="155.5" font-size="9" fill="#c0392b">-97%</text>
<text x="192" y="170.5" text-anchor="end" font-size="10" fill="#333">送王船</text>
<line x1="403.3" y1="167.5" x2="587.0" y2="167.5" stroke="#c0392b" stroke-width="2.2" opacity="0.6"/>
<circle cx="403.3" cy="167.5" r="3.2" fill="#16557a"/>
<circle cx="587.0" cy="167.5" r="3.2" fill="#c0392b"/>
<text x="868" y="170.5" font-size="9" fill="#c0392b">-95%</text>
<text x="192" y="185.5" text-anchor="end" font-size="10" fill="#333">中国珠算</text>
<line x1="585.4" y1="182.5" x2="714.2" y2="182.5" stroke="#c0392b" stroke-width="2.2" opacity="0.6"/>
<circle cx="585.4" cy="182.5" r="3.2" fill="#16557a"/>
<circle cx="714.2" cy="182.5" r="3.2" fill="#c0392b"/>
<text x="868" y="185.5" font-size="9" fill="#c0392b">-88%</text>
<text x="192" y="200.5" text-anchor="end" font-size="10" fill="#333">中国剪纸</text>
<line x1="606.7" y1="197.5" x2="725.7" y2="197.5" stroke="#c0392b" stroke-width="2.2" opacity="0.6"/>
<circle cx="606.7" cy="197.5" r="3.2" fill="#16557a"/>
<circle cx="725.7" cy="197.5" r="3.2" fill="#c0392b"/>
<text x="868" y="200.5" font-size="9" fill="#c0392b">-86%</text>
<text x="192" y="215.5" text-anchor="end" font-size="10" fill="#333">新疆维吾尔木卡姆艺术</text>
<line x1="406.4" y1="212.5" x2="518.4" y2="212.5" stroke="#c0392b" stroke-width="2.2" opacity="0.6"/>
<circle cx="406.4" cy="212.5" r="3.2" fill="#16557a"/>
<circle cx="518.4" cy="212.5" r="3.2" fill="#c0392b"/>
<text x="868" y="215.5" font-size="9" fill="#c0392b">-84%</text>
<text x="192" y="230.5" text-anchor="end" font-size="10" fill="#333">宣纸传统制作技艺</text>
<line x1="657.0" y1="227.5" x2="743.1" y2="227.5" stroke="#c0392b" stroke-width="2.2" opacity="0.6"/>
<circle cx="657.0" cy="227.5" r="3.2" fill="#16557a"/>
<circle cx="743.1" cy="227.5" r="3.2" fill="#c0392b"/>
<text x="868" y="230.5" font-size="9" fill="#c0392b">-76%</text>
<text x="192" y="245.5" text-anchor="end" font-size="10" fill="#333">中国书法</text>
<line x1="726.0" y1="242.5" x2="811.2" y2="242.5" stroke="#c0392b" stroke-width="2.2" opacity="0.6"/>
<circle cx="726.0" cy="242.5" r="3.2" fill="#16557a"/>
<circle cx="811.2" cy="242.5" r="3.2" fill="#c0392b"/>
<text x="868" y="245.5" font-size="9" fill="#c0392b">-76%</text>
<text x="192" y="260.5" text-anchor="end" font-size="10" fill="#333">中国木拱桥传统营造技艺</text>
<line x1="406.7" y1="257.5" x2="488.4" y2="257.5" stroke="#c0392b" stroke-width="2.2" opacity="0.6"/>
<circle cx="406.7" cy="257.5" r="3.2" fill="#16557a"/>
<circle cx="488.4" cy="257.5" r="3.2" fill="#c0392b"/>
<text x="868" y="260.5" font-size="9" fill="#c0392b">-74%</text>
<text x="192" y="275.5" text-anchor="end" font-size="10" fill="#333">中国传统木结构建筑营造技艺</text>
<line x1="557.6" y1="272.5" x2="624.9" y2="272.5" stroke="#d88923" stroke-width="2.2" opacity="0.6"/>
<circle cx="557.6" cy="272.5" r="3.2" fill="#16557a"/>
<circle cx="624.9" cy="272.5" r="3.2" fill="#d88923"/>
<text x="868" y="275.5" font-size="9" fill="#d88923">-67%</text>
<text x="192" y="290.5" text-anchor="end" font-size="10" fill="#333">中医针灸</text>
<line x1="670.9" y1="287.5" x2="736.5" y2="287.5" stroke="#d88923" stroke-width="2.2" opacity="0.6"/>
<circle cx="670.9" cy="287.5" r="3.2" fill="#16557a"/>
<circle cx="736.5" cy="287.5" r="3.2" fill="#d88923"/>
<text x="868" y="290.5" font-size="9" fill="#d88923">-66%</text>
<text x="192" y="305.5" text-anchor="end" font-size="10" fill="#333">蒙古族呼麦</text>
<line x1="693.6" y1="302.5" x2="752.6" y2="302.5" stroke="#d88923" stroke-width="2.2" opacity="0.6"/>
<circle cx="693.6" cy="302.5" r="3.2" fill="#16557a"/>
<circle cx="752.6" cy="302.5" r="3.2" fill="#d88923"/>
<text x="868" y="305.5" font-size="9" fill="#d88923">-62%</text>
<text x="192" y="320.5" text-anchor="end" font-size="10" fill="#333">中国朝鲜族农乐舞</text>
<line x1="413.9" y1="317.5" x2="462.8" y2="317.5" stroke="#d88923" stroke-width="2.2" opacity="0.6"/>
<circle cx="413.9" cy="317.5" r="3.2" fill="#16557a"/>
<circle cx="462.8" cy="317.5" r="3.2" fill="#d88923"/>
<text x="868" y="320.5" font-size="9" fill="#d88923">-55%</text>
<text x="192" y="335.5" text-anchor="end" font-size="10" fill="#333">太极拳</text>
<line x1="690.7" y1="332.5" x2="737.3" y2="332.5" stroke="#d88923" stroke-width="2.2" opacity="0.6"/>
<circle cx="690.7" cy="332.5" r="3.2" fill="#16557a"/>
<circle cx="737.3" cy="332.5" r="3.2" fill="#d88923"/>
<text x="868" y="335.5" font-size="9" fill="#d88923">-54%</text>
<text x="192" y="350.5" text-anchor="end" font-size="10" fill="#333">昆曲</text>
<line x1="470.3" y1="347.5" x2="515.2" y2="347.5" stroke="#d88923" stroke-width="2.2" opacity="0.6"/>
<circle cx="470.3" cy="347.5" r="3.2" fill="#16557a"/>
<circle cx="515.2" cy="347.5" r="3.2" fill="#d88923"/>
<text x="868" y="350.5" font-size="9" fill="#d88923">-52%</text>
<text x="192" y="365.5" text-anchor="end" font-size="10" fill="#333">麦西热甫</text>
<line x1="613.5" y1="362.5" x2="652.6" y2="362.5" stroke="#d88923" stroke-width="2.2" opacity="0.6"/>
<circle cx="613.5" cy="362.5" r="3.2" fill="#16557a"/>
<circle cx="652.6" cy="362.5" r="3.2" fill="#d88923"/>
<text x="868" y="365.5" font-size="9" fill="#d88923">-48%</text>
<text x="192" y="380.5" text-anchor="end" font-size="10" fill="#333">妈祖信俗</text>
<line x1="598.4" y1="377.5" x2="636.2" y2="377.5" stroke="#d88923" stroke-width="2.2" opacity="0.6"/>
<circle cx="598.4" cy="377.5" r="3.2" fill="#16557a"/>
<circle cx="636.2" cy="377.5" r="3.2" fill="#d88923"/>
<text x="868" y="380.5" font-size="9" fill="#d88923">-46%</text>
<text x="192" y="395.5" text-anchor="end" font-size="10" fill="#333">藏戏</text>
<line x1="400.5" y1="392.5" x2="436.6" y2="392.5" stroke="#d88923" stroke-width="2.2" opacity="0.6"/>
<circle cx="400.5" cy="392.5" r="3.2" fill="#16557a"/>
<circle cx="436.6" cy="392.5" r="3.2" fill="#d88923"/>
<text x="868" y="395.5" font-size="9" fill="#d88923">-45%</text>
<text x="192" y="410.5" text-anchor="end" font-size="10" fill="#333">中国雕版印刷技艺</text>
<line x1="642.5" y1="407.5" x2="678.0" y2="407.5" stroke="#d88923" stroke-width="2.2" opacity="0.6"/>
<circle cx="642.5" cy="407.5" r="3.2" fill="#16557a"/>
<circle cx="678.0" cy="407.5" r="3.2" fill="#d88923"/>
<text x="868" y="410.5" font-size="9" fill="#d88923">-44%</text>
<text x="192" y="425.5" text-anchor="end" font-size="10" fill="#333">热贡艺术</text>
<line x1="457.9" y1="422.5" x2="487.3" y2="422.5" stroke="#1f9d7a" stroke-width="2.2" opacity="0.6"/>
<circle cx="457.9" cy="422.5" r="3.2" fill="#16557a"/>
<circle cx="487.3" cy="422.5" r="3.2" fill="#1f9d7a"/>
<text x="868" y="425.5" font-size="9" fill="#1f9d7a">-38%</text>
<text x="192" y="440.5" text-anchor="end" font-size="10" fill="#333">中国皮影戏</text>
<line x1="535.9" y1="437.5" x2="559.9" y2="437.5" stroke="#1f9d7a" stroke-width="2.2" opacity="0.6"/>
<circle cx="535.9" cy="437.5" r="3.2" fill="#16557a"/>
<circle cx="559.9" cy="437.5" r="3.2" fill="#1f9d7a"/>
<text x="868" y="440.5" font-size="9" fill="#1f9d7a">-33%</text>
<text x="192" y="455.5" text-anchor="end" font-size="10" fill="#333">南音</text>
<line x1="542.8" y1="452.5" x2="564.5" y2="452.5" stroke="#1f9d7a" stroke-width="2.2" opacity="0.6"/>
<circle cx="542.8" cy="452.5" r="3.2" fill="#16557a"/>
<circle cx="564.5" cy="452.5" r="3.2" fill="#1f9d7a"/>
<text x="868" y="455.5" font-size="9" fill="#1f9d7a">-30%</text>
<text x="192" y="470.5" text-anchor="end" font-size="10" fill="#333">龙泉青瓷传统烧制技艺</text>
<line x1="671.3" y1="467.5" x2="689.1" y2="467.5" stroke="#1f9d7a" stroke-width="2.2" opacity="0.6"/>
<circle cx="671.3" cy="467.5" r="3.2" fill="#16557a"/>
<circle cx="689.1" cy="467.5" r="3.2" fill="#1f9d7a"/>
<text x="868" y="470.5" font-size="9" fill="#1f9d7a">-25%</text>
<text x="192" y="485.5" text-anchor="end" font-size="10" fill="#333">黎族传统纺染织绣技艺</text>
<line x1="559.8" y1="482.5" x2="577.5" y2="482.5" stroke="#1f9d7a" stroke-width="2.2" opacity="0.6"/>
<circle cx="559.8" cy="482.5" r="3.2" fill="#16557a"/>
<circle cx="577.5" cy="482.5" r="3.2" fill="#1f9d7a"/>
<text x="868" y="485.5" font-size="9" fill="#1f9d7a">-25%</text>
<text x="192" y="500.5" text-anchor="end" font-size="10" fill="#333">羌年</text>
<line x1="607.6" y1="497.5" x2="624.6" y2="497.5" stroke="#1f9d7a" stroke-width="2.2" opacity="0.6"/>
<circle cx="607.6" cy="497.5" r="3.2" fill="#16557a"/>
<circle cx="624.6" cy="497.5" r="3.2" fill="#1f9d7a"/>
<text x="868" y="500.5" font-size="9" fill="#1f9d7a">-24%</text>
<text x="192" y="515.5" text-anchor="end" font-size="10" fill="#333">中国篆刻</text>
<line x1="630.8" y1="512.5" x2="647.4" y2="512.5" stroke="#1f9d7a" stroke-width="2.2" opacity="0.6"/>
<circle cx="630.8" cy="512.5" r="3.2" fill="#16557a"/>
<circle cx="647.4" cy="512.5" r="3.2" fill="#1f9d7a"/>
<text x="868" y="515.5" font-size="9" fill="#1f9d7a">-24%</text>
<text x="192" y="530.5" text-anchor="end" font-size="10" fill="#333">古琴艺术</text>
<line x1="669.9" y1="527.5" x2="685.9" y2="527.5" stroke="#1f9d7a" stroke-width="2.2" opacity="0.6"/>
<circle cx="669.9" cy="527.5" r="3.2" fill="#16557a"/>
<circle cx="685.9" cy="527.5" r="3.2" fill="#1f9d7a"/>
<text x="868" y="530.5" font-size="9" fill="#1f9d7a">-23%</text>
<text x="192" y="545.5" text-anchor="end" font-size="10" fill="#333">花儿</text>
<line x1="227.9" y1="542.5" x2="243.4" y2="542.5" stroke="#1f9d7a" stroke-width="2.2" opacity="0.6"/>
<circle cx="227.9" cy="542.5" r="3.2" fill="#16557a"/>
<circle cx="243.4" cy="542.5" r="3.2" fill="#1f9d7a"/>
<text x="868" y="545.5" font-size="9" fill="#1f9d7a">-23%</text>
<text x="192" y="560.5" text-anchor="end" font-size="10" fill="#333">藏医药浴法</text>
<line x1="390.1" y1="557.5" x2="404.0" y2="557.5" stroke="#1f9d7a" stroke-width="2.2" opacity="0.6"/>
<circle cx="390.1" cy="557.5" r="3.2" fill="#16557a"/>
<circle cx="404.0" cy="557.5" r="3.2" fill="#1f9d7a"/>
<text x="868" y="560.5" font-size="9" fill="#1f9d7a">-21%</text>
<text x="192" y="575.5" text-anchor="end" font-size="10" fill="#333">京剧</text>
<line x1="743.9" y1="572.5" x2="757.0" y2="572.5" stroke="#1f9d7a" stroke-width="2.2" opacity="0.6"/>
<circle cx="743.9" cy="572.5" r="3.2" fill="#16557a"/>
<circle cx="757.0" cy="572.5" r="3.2" fill="#1f9d7a"/>
<text x="868" y="575.5" font-size="9" fill="#1f9d7a">-20%</text>
<text x="192" y="590.5" text-anchor="end" font-size="10" fill="#333">中国蚕桑丝织技艺</text>
<line x1="625.8" y1="587.5" x2="638.8" y2="587.5" stroke="#1f9d7a" stroke-width="2.2" opacity="0.6"/>
<circle cx="625.8" cy="587.5" r="3.2" fill="#16557a"/>
<circle cx="638.8" cy="587.5" r="3.2" fill="#1f9d7a"/>
<text x="868" y="590.5" font-size="9" fill="#1f9d7a">-19%</text>
<text x="192" y="605.5" text-anchor="end" font-size="10" fill="#333">端午节</text>
<line x1="681.7" y1="602.5" x2="688.6" y2="602.5" stroke="#1f9d7a" stroke-width="2.2" opacity="0.6"/>
<circle cx="681.7" cy="602.5" r="3.2" fill="#16557a"/>
<circle cx="688.6" cy="602.5" r="3.2" fill="#1f9d7a"/>
<text x="868" y="605.5" font-size="9" fill="#1f9d7a">-11%</text>
<text x="192" y="620.5" text-anchor="end" font-size="10" fill="#333">西安鼓乐</text>
<line x1="543.8" y1="617.5" x2="547.7" y2="617.5" stroke="#1f9d7a" stroke-width="2.2" opacity="0.6"/>
<circle cx="543.8" cy="617.5" r="3.2" fill="#16557a"/>
<circle cx="547.7" cy="617.5" r="3.2" fill="#1f9d7a"/>
<text x="868" y="620.5" font-size="9" fill="#1f9d7a">-6%</text>
<text x="192" y="635.5" text-anchor="end" font-size="10" fill="#333">中国木活字印刷术</text>
<line x1="699.6" y1="632.5" x2="702.9" y2="632.5" stroke="#1f9d7a" stroke-width="2.2" opacity="0.6"/>
<circle cx="699.6" cy="632.5" r="3.2" fill="#16557a"/>
<circle cx="702.9" cy="632.5" r="3.2" fill="#1f9d7a"/>
<text x="868" y="635.5" font-size="9" fill="#1f9d7a">-5%</text>
<text x="192" y="650.5" text-anchor="end" font-size="10" fill="#333">侗族大歌</text>
<line x1="284.8" y1="647.5" x2="288.0" y2="647.5" stroke="#1f9d7a" stroke-width="2.2" opacity="0.6"/>
<circle cx="284.8" cy="647.5" r="3.2" fill="#16557a"/>
<circle cx="288.0" cy="647.5" r="3.2" fill="#1f9d7a"/>
<text x="868" y="650.5" font-size="9" fill="#1f9d7a">-5%</text>
<text x="192" y="665.5" text-anchor="end" font-size="10" fill="#333">中国传统制茶技艺及其相关习俗</text>
<line x1="702.4" y1="662.5" x2="703.9" y2="662.5" stroke="#1f9d7a" stroke-width="2.2" opacity="0.6"/>
<circle cx="702.4" cy="662.5" r="3.2" fill="#16557a"/>
<circle cx="703.9" cy="662.5" r="3.2" fill="#1f9d7a"/>
<text x="868" y="665.5" font-size="9" fill="#1f9d7a">-2%</text>
<text x="192" y="680.5" text-anchor="end" font-size="10" fill="#333">春节</text>
<line x1="830.7" y1="677.5" x2="832.1" y2="677.5" stroke="#1f9d7a" stroke-width="2.2" opacity="0.6"/>
<circle cx="830.7" cy="677.5" r="3.2" fill="#16557a"/>
<circle cx="832.1" cy="677.5" r="3.2" fill="#1f9d7a"/>
<text x="868" y="680.5" font-size="9" fill="#1f9d7a">-2%</text>
<text x="192" y="695.5" text-anchor="end" font-size="10" fill="#333">福建木偶戏</text>
<line x1="370.5" y1="692.5" x2="371.4" y2="692.5" stroke="#1f9d7a" stroke-width="2.2" opacity="0.6"/>
<circle cx="370.5" cy="692.5" r="3.2" fill="#16557a"/>
<circle cx="371.4" cy="692.5" r="3.2" fill="#1f9d7a"/>
<text x="868" y="695.5" font-size="9" fill="#1f9d7a">-2%</text>
<text x="192" y="710.5" text-anchor="end" font-size="10" fill="#333">二十四节气</text>
<line x1="591.3" y1="707.5" x2="591.9" y2="707.5" stroke="#1f9d7a" stroke-width="2.2" opacity="0.6"/>
<circle cx="591.3" cy="707.5" r="3.2" fill="#16557a"/>
<circle cx="591.9" cy="707.5" r="3.2" fill="#1f9d7a"/>
<text x="868" y="710.5" font-size="9" fill="#1f9d7a">-1%</text>
<text x="192" y="725.5" text-anchor="end" font-size="10" fill="#333">粤剧</text>
<line x1="627.8" y1="722.5" x2="627.8" y2="722.5" stroke="#1f9d7a" stroke-width="2.2" opacity="0.6"/>
<circle cx="627.8" cy="722.5" r="3.2" fill="#16557a"/>
<circle cx="627.8" cy="722.5" r="3.2" fill="#1f9d7a"/>
<text x="868" y="725.5" font-size="9" fill="#1f9d7a">-0%</text>
<circle cx="200" cy="756" r="3.2" fill="#16557a"/><text x="210" y="760" font-size="10" fill="#333">过滤后(下界)</text>
<circle cx="350" cy="756" r="3.2" fill="#c0392b"/><text x="360" y="760" font-size="10" fill="#333">机器 likely(上界)</text>
</svg>