<svg xmlns="http://www.w3.org/2000/svg" width="920" height="360" viewBox="0 0 920 360" role="img">
<style>
.svg-title{font:700 22px system-ui,-apple-system,BlinkMacSystemFont,'Segoe UI','Noto Sans CJK SC','Microsoft YaHei',sans-serif;fill:#0f172a}
.svg-subtitle{font:700 15px system-ui,-apple-system,BlinkMacSystemFont,'Segoe UI','Noto Sans CJK SC','Microsoft YaHei',sans-serif;fill:#334155}
.svg-label{font:600 14px system-ui,-apple-system,BlinkMacSystemFont,'Segoe UI','Noto Sans CJK SC','Microsoft YaHei',sans-serif;fill:#334155}
.svg-value{font:700 14px system-ui,-apple-system,BlinkMacSystemFont,'Segoe UI','Noto Sans CJK SC','Microsoft YaHei',sans-serif;fill:#0f172a}
.svg-axis{font:600 13px system-ui,-apple-system,BlinkMacSystemFont,'Segoe UI','Noto Sans CJK SC','Microsoft YaHei',sans-serif;fill:#475569}
.svg-small{font:12px system-ui,-apple-system,BlinkMacSystemFont,'Segoe UI','Noto Sans CJK SC','Microsoft YaHei',sans-serif;fill:#334155}
.svg-quad-label{font:700 13px system-ui,-apple-system,BlinkMacSystemFont,'Segoe UI','Noto Sans CJK SC','Microsoft YaHei',sans-serif;fill:#334155}
</style>
<rect width="100%" height="100%" fill="#ffffff"/>
<text x="24" y="28" class="svg-title">最终分层分布：先按叙事角色看，不按项目清单顺序看</text>
<text x="24" y="61" class="svg-label">T1 规模化出海</text>
<rect x="250" y="42" width="101.8" height="26" rx="7" fill="#1f9d7a"/>
<text x="363.8" y="61" class="svg-value">4 项</text>
<text x="24" y="103" class="svg-label">T1 噪声风险头部</text>
<rect x="250" y="84" width="76.4" height="26" rx="7" fill="#d88923"/>
<text x="338.4" y="103" class="svg-value">3 项</text>
<text x="24" y="145" class="svg-label">T2 小众破圈</text>
<rect x="250" y="126" width="203.6" height="26" rx="7" fill="#3b82f6"/>
<text x="465.6" y="145" class="svg-value">8 项</text>
<text x="24" y="187" class="svg-label">T3 国内/自循环</text>
<rect x="250" y="168" width="76.4" height="26" rx="7" fill="#8b5cf6"/>
<text x="338.4" y="187" class="svg-value">3 项</text>
<text x="24" y="229" class="svg-label">T0 假破圈剔除</text>
<rect x="250" y="210" width="76.4" height="26" rx="7" fill="#dc2626"/>
<text x="338.4" y="229" class="svg-value">3 项</text>
<text x="24" y="271" class="svg-label">T4 近不可见/已查噪</text>
<rect x="250" y="252" width="560.0" height="26" rx="7" fill="#64748b"/>
<text x="822.0" y="271" class="svg-value">22 项</text>
<text x="24" y="313" class="svg-label">T4 近不可见</text>
<rect x="250" y="294" width="25.5" height="26" rx="7" fill="#94a3b8"/>
<text x="287.5" y="313" class="svg-value">1 项</text>
</svg>