<svg xmlns="http://www.w3.org/2000/svg" width="980" height="420" viewBox="0 0 980 420" role="img">
<style>
.svg-title{font:700 22px system-ui,-apple-system,BlinkMacSystemFont,'Segoe UI','Noto Sans CJK SC','Microsoft YaHei',sans-serif;fill:#0f172a}
.svg-subtitle{font:700 15px system-ui,-apple-system,BlinkMacSystemFont,'Segoe UI','Noto Sans CJK SC','Microsoft YaHei',sans-serif;fill:#334155}
.svg-label{font:600 14px system-ui,-apple-system,BlinkMacSystemFont,'Segoe UI','Noto Sans CJK SC','Microsoft YaHei',sans-serif;fill:#334155}
.svg-value{font:700 14px system-ui,-apple-system,BlinkMacSystemFont,'Segoe UI','Noto Sans CJK SC','Microsoft YaHei',sans-serif;fill:#0f172a}
.svg-axis{font:600 13px system-ui,-apple-system,BlinkMacSystemFont,'Segoe UI','Noto Sans CJK SC','Microsoft YaHei',sans-serif;fill:#475569}
.svg-small{font:12px system-ui,-apple-system,BlinkMacSystemFont,'Segoe UI','Noto Sans CJK SC','Microsoft YaHei',sans-serif;fill:#334155}
.svg-quad-label{font:700 13px system-ui,-apple-system,BlinkMacSystemFont,'Segoe UI','Noto Sans CJK SC','Microsoft YaHei',sans-serif;fill:#334155}
</style>
<rect width="100%" height="100%" fill="#ffffff"/>
<text x="24" y="34" class="svg-title">噪声与人工回流：哪些“高触达”不能直接讲成传播成功</text>
<text x="24" y="70" class="svg-subtitle">低相关播放占比 Top 12</text>
<text x="24" y="106" class="svg-small">藏医药浴法</text>
<rect x="170" y="92" width="296.2" height="14" rx="4" fill="#ef4444" opacity="0.78"/>
<text x="474.2" y="104" class="svg-small">99%</text>
<text x="24" y="130" class="svg-small">侗族大歌</text>
<rect x="170" y="116" width="295.9" height="14" rx="4" fill="#ef4444" opacity="0.78"/>
<text x="473.9" y="128" class="svg-small">99%</text>
<text x="24" y="154" class="svg-small">西安鼓乐</text>
<rect x="170" y="140" width="295.1" height="14" rx="4" fill="#ef4444" opacity="0.78"/>
<text x="473.1" y="152" class="svg-small">98%</text>
<text x="24" y="178" class="svg-small">热贡艺术</text>
<rect x="170" y="164" width="294.0" height="14" rx="4" fill="#ef4444" opacity="0.78"/>
<text x="472.0" y="176" class="svg-small">98%</text>
<text x="24" y="202" class="svg-small">花儿</text>
<rect x="170" y="188" width="292.5" height="14" rx="4" fill="#ef4444" opacity="0.78"/>
<text x="470.5" y="200" class="svg-small">98%</text>
<text x="24" y="226" class="svg-small">中国朝鲜族农乐舞</text>
<rect x="170" y="212" width="292.5" height="14" rx="4" fill="#ef4444" opacity="0.78"/>
<text x="470.5" y="224" class="svg-small">98%</text>
<text x="24" y="250" class="svg-small">赫哲族伊玛堪</text>
<rect x="170" y="236" width="289.8" height="14" rx="4" fill="#ef4444" opacity="0.78"/>
<text x="467.8" y="248" class="svg-small">97%</text>
<text x="24" y="274" class="svg-small">南音</text>
<rect x="170" y="260" width="287.1" height="14" rx="4" fill="#ef4444" opacity="0.78"/>
<text x="465.1" y="272" class="svg-small">96%</text>
<text x="24" y="298" class="svg-small">福建木偶戏</text>
<rect x="170" y="284" width="286.2" height="14" rx="4" fill="#ef4444" opacity="0.78"/>
<text x="464.2" y="296" class="svg-small">95%</text>
<text x="24" y="322" class="svg-small">中国皮影戏</text>
<rect x="170" y="308" width="285.8" height="14" rx="4" fill="#ef4444" opacity="0.78"/>
<text x="463.8" y="320" class="svg-small">95%</text>
<text x="24" y="346" class="svg-small">新疆维吾尔木卡姆艺术</text>
<rect x="170" y="332" width="284.9" height="14" rx="4" fill="#ef4444" opacity="0.78"/>
<text x="462.9" y="344" class="svg-small">95%</text>
<text x="24" y="370" class="svg-small">昆曲</text>
<rect x="170" y="356" width="281.9" height="14" rx="4" fill="#ef4444" opacity="0.78"/>
<text x="459.9" y="368" class="svg-small">94%</text>
<text x="540" y="70" class="svg-subtitle">人工回流确认的触达修正 / 假破圈</text>
<text x="540" y="107" class="svg-small">中国水密隔舱福船制造技艺</text>
<rect x="665" y="92" width="300.0" height="16" rx="4" fill="#dc2626" opacity="0.82"/>
<text x="973.0" y="105" class="svg-small">-118.9M · false_breakout_confirmed</text>
<text x="540" y="137" class="svg-small">中国珠算</text>
<rect x="665" y="122" width="287.9" height="16" rx="4" fill="#dc2626" opacity="0.82"/>
<text x="960.9" y="135" class="svg-small">-114.1M · false_breakout_confirmed</text>
<text x="540" y="167" class="svg-small">麦西热甫</text>
<rect x="665" y="152" width="213.2" height="16" rx="4" fill="#dc2626" opacity="0.82"/>
<text x="886.2" y="165" class="svg-small">-84.5M · false_breakout_confirmed</text>
<text x="540" y="197" class="svg-small">中医针灸</text>
<rect x="665" y="182" width="211.9" height="16" rx="4" fill="#f97316" opacity="0.82"/>
<text x="884.9" y="195" class="svg-small">-84.0M · row override</text>
<text x="540" y="227" class="svg-small">龙泉青瓷传统烧制技艺</text>
<rect x="665" y="212" width="142.3" height="16" rx="4" fill="#f97316" opacity="0.82"/>
<text x="815.3" y="225" class="svg-small">-56.4M · row override</text>
<text x="540" y="257" class="svg-small">中国传统木结构建筑营造技</text>
<rect x="665" y="242" width="80.5" height="16" rx="4" fill="#f97316" opacity="0.82"/>
<text x="753.5" y="255" class="svg-small">-31.9M · row override</text>
<text x="540" y="287" class="svg-small">中国篆刻</text>
<rect x="665" y="272" width="73.4" height="16" rx="4" fill="#f97316" opacity="0.82"/>
<text x="746.4" y="285" class="svg-small">-29.1M · row override</text>
<text x="540" y="317" class="svg-small">妈祖信俗</text>
<rect x="665" y="302" width="54.0" height="16" rx="4" fill="#f97316" opacity="0.82"/>
<text x="727.0" y="315" class="svg-small">-21.4M · row override</text>
<text x="540" y="347" class="svg-small">送王船</text>
<rect x="665" y="332" width="53.5" height="16" rx="4" fill="#f97316" opacity="0.82"/>
<text x="726.5" y="345" class="svg-small">-21.2M · row override</text>
<text x="540" y="377" class="svg-small">古琴艺术</text>
<rect x="665" y="362" width="44.9" height="16" rx="4" fill="#f97316" opacity="0.82"/>
<text x="717.9" y="375" class="svg-small">-17.8M · row override</text>
</svg>