<svg xmlns="http://www.w3.org/2000/svg" width="960" height="660" viewBox="0 0 960 660" font-family="-apple-system,Segoe UI,Helvetica,Arial,sans-serif">
<rect width="960" height="660" fill="#ffffff"/>
<text x="480.0" y="26" text-anchor="middle" font-size="18" font-weight="700">图① 存量 × 触达：44 项中国非遗 TikTok 可见性矩阵</text>
<text x="480.0" y="44" text-anchor="middle" font-size="11" fill="#666">竖线=触达区间（下端 中国信号过滤 / 上端 机器 likely）；绿菱=头部378条人工核查后的真值锚点；象限按中位线划分</text>
<rect x="407.4793655132317" y="60" width="522.5206344867684" height="232.1512387701244" fill="#e7f6f0"/>
<rect x="70" y="292.1512387701244" width="337.4793655132317" height="297.8487612298756" fill="#f5f5f7"/>
<rect x="407.4793655132317" y="292.1512387701244" width="522.5206344867684" height="297.8487612298756" fill="#fdeee0"/>
<rect x="70" y="60" width="337.4793655132317" height="232.1512387701244" fill="#eaf1fd"/>
<line x1="70" y1="590" x2="930" y2="590" stroke="#333"/>
<line x1="70" y1="60" x2="70" y2="590" stroke="#333"/>
<line x1="407.4793655132317" y1="60" x2="407.4793655132317" y2="590" stroke="#bbb" stroke-dasharray="4 4"/>
<line x1="70" y1="292.1512387701244" x2="930" y2="292.1512387701244" stroke="#bbb" stroke-dasharray="4 4"/>
<text x="62" y="533.9882016291843" text-anchor="end" font-size="10" fill="#888">100K</text>
<text x="62" y="426.5776976936404" text-anchor="end" font-size="10" fill="#888">1.0M</text>
<text x="62" y="319.16719375809646" text-anchor="end" font-size="10" fill="#888">10.0M</text>
<text x="62" y="211.75668982255252" text-anchor="end" font-size="10" fill="#888">100.0M</text>
<text x="62" y="104.34618588700863" text-anchor="end" font-size="10" fill="#888">1.00B</text>
<text x="122.72171961361852" y="606" text-anchor="middle" font-size="10" fill="#888">10</text>
<text x="271.2746315663628" y="606" text-anchor="middle" font-size="10" fill="#888">100</text>
<text x="419.8275435191072" y="606" text-anchor="middle" font-size="10" fill="#888">1K</text>
<text x="568.3804554718515" y="606" text-anchor="middle" font-size="10" fill="#888">10K</text>
<text x="716.9333674245959" y="606" text-anchor="middle" font-size="10" fill="#888">100K</text>
<text x="865.4862793773402" y="606" text-anchor="middle" font-size="10" fill="#888">1.0M</text>
<text x="500.0" y="638" text-anchor="middle" font-size="12" fill="#444">存量（challenge 视频规模，对数）→</text>
<text x="20" y="325.0" text-anchor="middle" font-size="12" fill="#444" transform="rotate(-90 20 325.0)">触达（相关播放量，对数）→</text>
<text x="922" y="74" text-anchor="end" font-size="11" fill="#1f9d7a" font-weight="700">真·规模化出海</text>
<text x="78" y="74" font-size="11" fill="#3b82f6" font-weight="700">小而精破圈</text>
<text x="922" y="582" text-anchor="end" font-size="11" fill="#d88923" font-weight="700">高存量低触达·自产自销</text>
<text x="78" y="582" font-size="11" fill="#888" font-weight="700">近乎隐形</text>
<line x1="900.3" y1="108.4" x2="900.3" y2="174.0" stroke="#c0392b" stroke-width="1.4" opacity="0.55"/>
<circle cx="900.3" cy="108.4" r="2.4" fill="#c0392b" opacity="0.5"/>
<circle cx="900.3" cy="174.0" r="3.4" fill="#16557a"/>
<text x="905.3" y="170.0" font-size="9" fill="#222">中国书法</text>
<line x1="287.2" y1="160.8" x2="287.2" y2="227.2" stroke="#c0392b" stroke-width="1.4" opacity="0.55"/>
<circle cx="287.2" cy="160.8" r="2.4" fill="#c0392b" opacity="0.5"/>
<circle cx="287.2" cy="227.2" r="3.4" fill="#16557a"/>
<path d="M 287.2 201.9 L 291.2 205.9 L 287.2 209.9 L 283.2 205.9 Z" fill="#1f9d4d" stroke="#fff" stroke-width="0.6"/>
<text x="292.2" y="223.2" font-size="9" fill="#222">宣纸传统制作技艺</text>
<line x1="413.2" y1="153.5" x2="413.2" y2="198.9" stroke="#c0392b" stroke-width="1.4" opacity="0.55"/>
<circle cx="413.2" cy="153.5" r="2.4" fill="#c0392b" opacity="0.5"/>
<circle cx="413.2" cy="198.9" r="3.4" fill="#16557a"/>
<path d="M 413.2 193.3 L 417.2 197.3 L 413.2 201.3 L 409.2 197.3 Z" fill="#1f9d4d" stroke="#fff" stroke-width="0.6"/>
<text x="418.2" y="194.9" font-size="9" fill="#222">蒙古族呼麦</text>
<line x1="350.8" y1="179.3" x2="350.8" y2="528.4" stroke="#c0392b" stroke-width="1.4" opacity="0.55"/>
<circle cx="350.8" cy="179.3" r="2.4" fill="#c0392b" opacity="0.5"/>
<circle cx="350.8" cy="528.4" r="3.4" fill="#16557a"/>
<text x="355.8" y="524.4" font-size="9" fill="#222">中国水密隔舱福船制造技艺</text>
<line x1="635.8" y1="174.2" x2="635.8" y2="265.9" stroke="#c0392b" stroke-width="1.4" opacity="0.55"/>
<circle cx="635.8" cy="174.2" r="2.4" fill="#c0392b" opacity="0.5"/>
<circle cx="635.8" cy="265.9" r="3.4" fill="#16557a"/>
<text x="640.8" y="261.9" font-size="9" fill="#222">中国剪纸</text>
<line x1="548.5" y1="165.9" x2="548.5" y2="216.4" stroke="#c0392b" stroke-width="1.4" opacity="0.55"/>
<circle cx="548.5" cy="165.9" r="2.4" fill="#c0392b" opacity="0.5"/>
<circle cx="548.5" cy="216.4" r="3.4" fill="#16557a"/>
<path d="M 548.5 188.9 L 552.5 192.9 L 548.5 196.9 L 544.5 192.9 Z" fill="#1f9d4d" stroke="#fff" stroke-width="0.6"/>
<text x="553.5" y="212.4" font-size="9" fill="#222">中医针灸</text>
<line x1="343.0" y1="183.1" x2="343.0" y2="282.3" stroke="#c0392b" stroke-width="1.4" opacity="0.55"/>
<circle cx="343.0" cy="183.1" r="2.4" fill="#c0392b" opacity="0.5"/>
<circle cx="343.0" cy="282.3" r="3.4" fill="#16557a"/>
<path d="M 343.0 228.4 L 347.0 232.4 L 343.0 236.4 L 339.0 232.4 Z" fill="#1f9d4d" stroke="#fff" stroke-width="0.6"/>
<text x="348.0" y="278.3" font-size="9" fill="#222">中国珠算</text>
<line x1="170.6" y1="189.0" x2="170.6" y2="470.4" stroke="#c0392b" stroke-width="1.4" opacity="0.55"/>
<circle cx="170.6" cy="189.0" r="2.4" fill="#c0392b" opacity="0.5"/>
<circle cx="170.6" cy="470.4" r="3.4" fill="#16557a"/>
<path d="M 170.6 184.7 L 174.6 188.7 L 170.6 192.7 L 166.6 188.7 Z" fill="#1f9d4d" stroke="#fff" stroke-width="0.6"/>
<text x="175.6" y="466.4" font-size="9" fill="#222">蒙古族长调民歌</text>
<line x1="765.1" y1="165.2" x2="765.1" y2="201.2" stroke="#c0392b" stroke-width="1.4" opacity="0.55"/>
<circle cx="765.1" cy="165.2" r="2.4" fill="#c0392b" opacity="0.5"/>
<circle cx="765.1" cy="201.2" r="3.4" fill="#16557a"/>
<path d="M 765.1 178.5 L 769.1 182.5 L 765.1 186.5 L 761.1 182.5 Z" fill="#1f9d4d" stroke="#fff" stroke-width="0.6"/>
<text x="770.1" y="197.2" font-size="9" fill="#222">太极拳</text>
<line x1="832.9" y1="206.9" x2="832.9" y2="442.0" stroke="#c0392b" stroke-width="1.4" opacity="0.55"/>
<circle cx="832.9" cy="206.9" r="2.4" fill="#c0392b" opacity="0.5"/>
<circle cx="832.9" cy="442.0" r="3.4" fill="#16557a"/>
<text x="837.9" y="438.0" font-size="9" fill="#222">南京云锦织造技艺</text>
<line x1="719.4" y1="207.1" x2="719.4" y2="373.1" stroke="#c0392b" stroke-width="1.4" opacity="0.55"/>
<circle cx="719.4" cy="207.1" r="2.4" fill="#c0392b" opacity="0.5"/>
<circle cx="719.4" cy="373.1" r="3.4" fill="#16557a"/>
<text x="724.4" y="369.1" font-size="9" fill="#222">玛纳斯</text>
<line x1="551.0" y1="150.1" x2="551.0" y2="160.2" stroke="#c0392b" stroke-width="1.4" opacity="0.55"/>
<circle cx="551.0" cy="150.1" r="2.4" fill="#c0392b" opacity="0.5"/>
<circle cx="551.0" cy="160.2" r="3.4" fill="#16557a"/>
<path d="M 551.0 148.4 L 555.0 152.4 L 551.0 156.4 L 547.0 152.4 Z" fill="#1f9d4d" stroke="#fff" stroke-width="0.6"/>
<text x="556.0" y="156.2" font-size="9" fill="#222">京剧</text>
<line x1="643.4" y1="211.0" x2="643.4" y2="238.3" stroke="#c0392b" stroke-width="1.4" opacity="0.55"/>
<circle cx="643.4" cy="211.0" r="2.4" fill="#c0392b" opacity="0.5"/>
<circle cx="643.4" cy="238.3" r="3.4" fill="#16557a"/>
<path d="M 643.4 225.5 L 647.4 229.5 L 643.4 233.5 L 639.4 229.5 Z" fill="#1f9d4d" stroke="#fff" stroke-width="0.6"/>
<text x="648.4" y="234.3" font-size="9" fill="#222">中国雕版印刷技艺</text>
<line x1="231.5" y1="230.5" x2="231.5" y2="260.7" stroke="#c0392b" stroke-width="1.4" opacity="0.55"/>
<circle cx="231.5" cy="230.5" r="2.4" fill="#c0392b" opacity="0.5"/>
<circle cx="231.5" cy="260.7" r="3.4" fill="#16557a"/>
<path d="M 231.5 248.5 L 235.5 252.5 L 231.5 256.5 L 227.5 252.5 Z" fill="#1f9d4d" stroke="#fff" stroke-width="0.6"/>
<text x="236.5" y="256.7" font-size="9" fill="#222">麦西热甫</text>
<line x1="392.7" y1="202.4" x2="392.7" y2="216.1" stroke="#c0392b" stroke-width="1.4" opacity="0.55"/>
<circle cx="392.7" cy="202.4" r="2.4" fill="#c0392b" opacity="0.5"/>
<circle cx="392.7" cy="216.1" r="3.4" fill="#16557a"/>
<path d="M 392.7 210.4 L 396.7 214.4 L 392.7 218.4 L 388.7 214.4 Z" fill="#1f9d4d" stroke="#fff" stroke-width="0.6"/>
<text x="397.7" y="212.1" font-size="9" fill="#222">龙泉青瓷传统烧制技艺</text>
<line x1="836.8" y1="92.2" x2="836.8" y2="93.3" stroke="#c0392b" stroke-width="1.4" opacity="0.55"/>
<circle cx="836.8" cy="92.2" r="2.4" fill="#c0392b" opacity="0.5"/>
<circle cx="836.8" cy="93.3" r="3.4" fill="#16557a"/>
<text x="841.8" y="89.3" font-size="9" fill="#222">春节</text>
<line x1="599.4" y1="251.9" x2="599.4" y2="303.7" stroke="#c0392b" stroke-width="1.4" opacity="0.55"/>
<circle cx="599.4" cy="251.9" r="2.4" fill="#c0392b" opacity="0.5"/>
<circle cx="599.4" cy="303.7" r="3.4" fill="#16557a"/>
<path d="M 599.4 270.4 L 603.4 274.4 L 599.4 278.4 L 595.4 274.4 Z" fill="#1f9d4d" stroke="#fff" stroke-width="0.6"/>
<text x="604.4" y="299.7" font-size="9" fill="#222">中国传统木结构建筑营造技艺</text>
<line x1="564.0" y1="204.9" x2="564.0" y2="217.2" stroke="#c0392b" stroke-width="1.4" opacity="0.55"/>
<circle cx="564.0" cy="204.9" r="2.4" fill="#c0392b" opacity="0.5"/>
<circle cx="564.0" cy="217.2" r="3.4" fill="#16557a"/>
<path d="M 564.0 209.8 L 568.0 213.8 L 564.0 217.8 L 560.0 213.8 Z" fill="#1f9d4d" stroke="#fff" stroke-width="0.6"/>
<text x="569.0" y="213.2" font-size="9" fill="#222">古琴艺术</text>
<line x1="590.1" y1="243.1" x2="590.1" y2="272.3" stroke="#c0392b" stroke-width="1.4" opacity="0.55"/>
<circle cx="590.1" cy="243.1" r="2.4" fill="#c0392b" opacity="0.5"/>
<circle cx="590.1" cy="272.3" r="3.4" fill="#16557a"/>
<text x="595.1" y="268.3" font-size="9" fill="#222">妈祖信俗</text>
<line x1="436.9" y1="281.1" x2="436.9" y2="422.7" stroke="#c0392b" stroke-width="1.4" opacity="0.55"/>
<circle cx="436.9" cy="281.1" r="2.4" fill="#c0392b" opacity="0.5"/>
<circle cx="436.9" cy="422.7" r="3.4" fill="#16557a"/>
<text x="441.9" y="418.7" font-size="9" fill="#222">送王船</text>
<line x1="488.2" y1="234.5" x2="488.2" y2="247.3" stroke="#c0392b" stroke-width="1.4" opacity="0.55"/>
<circle cx="488.2" cy="234.5" r="2.4" fill="#c0392b" opacity="0.5"/>
<circle cx="488.2" cy="247.3" r="3.4" fill="#16557a"/>
<path d="M 488.2 233.8 L 492.2 237.8 L 488.2 241.8 L 484.2 237.8 Z" fill="#1f9d4d" stroke="#fff" stroke-width="0.6"/>
<text x="493.2" y="243.3" font-size="9" fill="#222">中国篆刻</text>
<line x1="560.8" y1="202.8" x2="560.8" y2="208.1" stroke="#c0392b" stroke-width="1.4" opacity="0.55"/>
<circle cx="560.8" cy="202.8" r="2.4" fill="#c0392b" opacity="0.5"/>
<circle cx="560.8" cy="208.1" r="3.4" fill="#16557a"/>
<path d="M 560.8 200.8 L 564.8 204.8 L 560.8 208.8 L 556.8 204.8 Z" fill="#1f9d4d" stroke="#fff" stroke-width="0.6"/>
<text x="565.8" y="204.1" font-size="9" fill="#222">端午节</text>
<line x1="376.1" y1="241.1" x2="376.1" y2="251.2" stroke="#c0392b" stroke-width="1.4" opacity="0.55"/>
<circle cx="376.1" cy="241.1" r="2.4" fill="#c0392b" opacity="0.5"/>
<circle cx="376.1" cy="251.2" r="3.4" fill="#16557a"/>
<text x="381.1" y="247.2" font-size="9" fill="#222">中国蚕桑丝织技艺</text>
<line x1="99.7" y1="252.1" x2="99.7" y2="265.2" stroke="#c0392b" stroke-width="1.4" opacity="0.55"/>
<circle cx="99.7" cy="252.1" r="2.4" fill="#c0392b" opacity="0.5"/>
<circle cx="99.7" cy="265.2" r="3.4" fill="#16557a"/>
<text x="104.7" y="261.2" font-size="9" fill="#222">羌年</text>
<line x1="157.0" y1="324.3" x2="157.0" y2="529.3" stroke="#c0392b" stroke-width="1.4" opacity="0.55"/>
<circle cx="157.0" cy="324.3" r="2.4" fill="#c0392b" opacity="0.5"/>
<circle cx="157.0" cy="529.3" r="3.4" fill="#16557a"/>
<path d="M 157.0 332.4 L 161.0 336.4 L 157.0 340.4 L 153.0 336.4 Z" fill="#1f9d4d" stroke="#fff" stroke-width="0.6"/>
<text x="162.0" y="525.3" font-size="9" fill="#222">赫哲族伊玛堪</text>
<line x1="305.9" y1="191.7" x2="305.9" y2="194.3" stroke="#c0392b" stroke-width="1.4" opacity="0.55"/>
<circle cx="305.9" cy="191.7" r="2.4" fill="#c0392b" opacity="0.5"/>
<circle cx="305.9" cy="194.3" r="3.4" fill="#16557a"/>
<text x="310.9" y="190.3" font-size="9" fill="#222">中国木活字印刷术</text>
<line x1="546.4" y1="333.9" x2="546.4" y2="420.2" stroke="#c0392b" stroke-width="1.4" opacity="0.55"/>
<circle cx="546.4" cy="333.9" r="2.4" fill="#c0392b" opacity="0.5"/>
<circle cx="546.4" cy="420.2" r="3.4" fill="#16557a"/>
<path d="M 546.4 373.6 L 550.4 377.6 L 546.4 381.6 L 542.4 377.6 Z" fill="#1f9d4d" stroke="#fff" stroke-width="0.6"/>
<text x="551.4" y="416.2" font-size="9" fill="#222">新疆维吾尔木卡姆艺术</text>
<line x1="223.9" y1="288.4" x2="223.9" y2="302.0" stroke="#c0392b" stroke-width="1.4" opacity="0.55"/>
<circle cx="223.9" cy="288.4" r="2.4" fill="#c0392b" opacity="0.5"/>
<circle cx="223.9" cy="302.0" r="3.4" fill="#16557a"/>
<text x="228.9" y="298.0" font-size="9" fill="#222">黎族传统纺染织绣技艺</text>
<line x1="415.5" y1="302.0" x2="415.5" y2="320.4" stroke="#c0392b" stroke-width="1.4" opacity="0.55"/>
<circle cx="415.5" cy="302.0" r="2.4" fill="#c0392b" opacity="0.5"/>
<circle cx="415.5" cy="320.4" r="3.4" fill="#16557a"/>
<path d="M 415.5 310.1 L 419.5 314.1 L 415.5 318.1 L 411.5 314.1 Z" fill="#1f9d4d" stroke="#fff" stroke-width="0.6"/>
<text x="420.5" y="316.4" font-size="9" fill="#222">中国皮影戏</text>
<line x1="409.6" y1="298.4" x2="409.6" y2="315.1" stroke="#c0392b" stroke-width="1.4" opacity="0.55"/>
<circle cx="409.6" cy="298.4" r="2.4" fill="#c0392b" opacity="0.5"/>
<circle cx="409.6" cy="315.1" r="3.4" fill="#16557a"/>
<text x="414.6" y="311.1" font-size="9" fill="#222">南音</text>
<line x1="599.3" y1="191.0" x2="599.3" y2="192.2" stroke="#c0392b" stroke-width="1.4" opacity="0.55"/>
<circle cx="599.3" cy="191.0" r="2.4" fill="#c0392b" opacity="0.5"/>
<circle cx="599.3" cy="192.2" r="3.4" fill="#16557a"/>
<text x="604.3" y="188.2" font-size="9" fill="#222">中国传统制茶技艺及其相关习俗</text>
<line x1="408.9" y1="336.4" x2="408.9" y2="371.0" stroke="#c0392b" stroke-width="1.4" opacity="0.55"/>
<circle cx="408.9" cy="336.4" r="2.4" fill="#c0392b" opacity="0.5"/>
<circle cx="408.9" cy="371.0" r="3.4" fill="#16557a"/>
<path d="M 408.9 354.5 L 412.9 358.5 L 408.9 362.5 L 404.9 358.5 Z" fill="#1f9d4d" stroke="#fff" stroke-width="0.6"/>
<text x="413.9" y="367.0" font-size="9" fill="#222">昆曲</text>
<line x1="139.6" y1="357.0" x2="139.6" y2="420.0" stroke="#c0392b" stroke-width="1.4" opacity="0.55"/>
<circle cx="139.6" cy="357.0" r="2.4" fill="#c0392b" opacity="0.5"/>
<circle cx="139.6" cy="420.0" r="3.4" fill="#16557a"/>
<path d="M 139.6 373.4 L 143.6 377.4 L 139.6 381.4 L 135.6 377.4 Z" fill="#1f9d4d" stroke="#fff" stroke-width="0.6"/>
<text x="144.6" y="416.0" font-size="9" fill="#222">中国木拱桥传统营造技艺</text>
<line x1="324.2" y1="395.5" x2="324.2" y2="554.4" stroke="#c0392b" stroke-width="1.4" opacity="0.55"/>
<circle cx="324.2" cy="395.5" r="2.4" fill="#c0392b" opacity="0.5"/>
<circle cx="324.2" cy="554.4" r="3.4" fill="#16557a"/>
<path d="M 324.2 511.9 L 328.2 515.9 L 324.2 519.9 L 320.2 515.9 Z" fill="#1f9d4d" stroke="#fff" stroke-width="0.6"/>
<text x="329.2" y="550.4" font-size="9" fill="#222">格萨(斯)尔史诗传统</text>
<line x1="207.1" y1="357.9" x2="207.1" y2="380.5" stroke="#c0392b" stroke-width="1.4" opacity="0.55"/>
<circle cx="207.1" cy="357.9" r="2.4" fill="#c0392b" opacity="0.5"/>
<circle cx="207.1" cy="380.5" r="3.4" fill="#16557a"/>
<path d="M 207.1 359.9 L 211.1 363.9 L 207.1 367.9 L 203.1 363.9 Z" fill="#1f9d4d" stroke="#fff" stroke-width="0.6"/>
<text x="212.1" y="376.5" font-size="9" fill="#222">热贡艺术</text>
<line x1="213.8" y1="376.7" x2="213.8" y2="414.4" stroke="#c0392b" stroke-width="1.4" opacity="0.55"/>
<circle cx="213.8" cy="376.7" r="2.4" fill="#c0392b" opacity="0.5"/>
<circle cx="213.8" cy="414.4" r="3.4" fill="#16557a"/>
<text x="218.8" y="410.4" font-size="9" fill="#222">中国朝鲜族农乐舞</text>
<line x1="406.1" y1="397.0" x2="406.1" y2="424.7" stroke="#c0392b" stroke-width="1.4" opacity="0.55"/>
<circle cx="406.1" cy="397.0" r="2.4" fill="#c0392b" opacity="0.5"/>
<circle cx="406.1" cy="424.7" r="3.4" fill="#16557a"/>
<text x="411.1" y="420.7" font-size="9" fill="#222">藏戏</text>
<line x1="115.9" y1="311.4" x2="115.9" y2="314.4" stroke="#c0392b" stroke-width="1.4" opacity="0.55"/>
<circle cx="115.9" cy="311.4" r="2.4" fill="#c0392b" opacity="0.5"/>
<circle cx="115.9" cy="314.4" r="3.4" fill="#16557a"/>
<text x="120.9" y="310.4" font-size="9" fill="#222">西安鼓乐</text>
<line x1="482.4" y1="277.3" x2="482.4" y2="277.8" stroke="#c0392b" stroke-width="1.4" opacity="0.55"/>
<circle cx="482.4" cy="277.3" r="2.4" fill="#c0392b" opacity="0.5"/>
<circle cx="482.4" cy="277.8" r="3.4" fill="#16557a"/>
<text x="487.4" y="273.8" font-size="9" fill="#222">二十四节气</text>
<line x1="331.9" y1="422.0" x2="331.9" y2="432.8" stroke="#c0392b" stroke-width="1.4" opacity="0.55"/>
<circle cx="331.9" cy="422.0" r="2.4" fill="#c0392b" opacity="0.5"/>
<circle cx="331.9" cy="432.8" r="3.4" fill="#16557a"/>
<path d="M 331.9 421.3 L 335.9 425.3 L 331.9 429.3 L 327.9 425.3 Z" fill="#1f9d4d" stroke="#fff" stroke-width="0.6"/>
<text x="336.9" y="428.8" font-size="9" fill="#222">藏医药浴法</text>
<line x1="304.0" y1="545.9" x2="304.0" y2="557.8" stroke="#c0392b" stroke-width="1.4" opacity="0.55"/>
<circle cx="304.0" cy="545.9" r="2.4" fill="#c0392b" opacity="0.5"/>
<circle cx="304.0" cy="557.8" r="3.4" fill="#16557a"/>
<text x="309.0" y="553.8" font-size="9" fill="#222">花儿</text>
<line x1="345.3" y1="447.2" x2="345.3" y2="447.9" stroke="#c0392b" stroke-width="1.4" opacity="0.55"/>
<circle cx="345.3" cy="447.2" r="2.4" fill="#c0392b" opacity="0.5"/>
<circle cx="345.3" cy="447.9" r="3.4" fill="#16557a"/>
<text x="350.3" y="443.9" font-size="9" fill="#222">福建木偶戏</text>
<line x1="122.7" y1="511.5" x2="122.7" y2="513.9" stroke="#c0392b" stroke-width="1.4" opacity="0.55"/>
<circle cx="122.7" cy="511.5" r="2.4" fill="#c0392b" opacity="0.5"/>
<circle cx="122.7" cy="513.9" r="3.4" fill="#16557a"/>
<path d="M 122.7 507.5 L 126.7 511.5 L 122.7 515.5 L 118.7 511.5 Z" fill="#1f9d4d" stroke="#fff" stroke-width="0.6"/>
<text x="127.7" y="509.9" font-size="9" fill="#222">侗族大歌</text>
<line x1="339.7" y1="249.6" x2="339.7" y2="249.6" stroke="#c0392b" stroke-width="1.4" opacity="0.55"/>
<circle cx="339.7" cy="249.6" r="2.4" fill="#c0392b" opacity="0.5"/>
<circle cx="339.7" cy="249.6" r="3.4" fill="#16557a"/>
<text x="344.7" y="245.6" font-size="9" fill="#222">粤剧</text>
<circle cx="80" cy="530" r="2.4" fill="#c0392b" opacity="0.6"/><text x="88" y="534" font-size="10" fill="#333">上界 机器 likely（含撞词噪声）</text>
<path d="M 80 542 l 4 4 l -4 4 l -4 -4 Z" fill="#1f9d4d"/><text x="88" y="550" font-size="10" fill="#333">人工锚定（头部378条核查后真值）</text>
<circle cx="80" cy="562" r="3.4" fill="#16557a"/><text x="88" y="566" font-size="10" fill="#333">下界 中国信号过滤</text>
</svg>